# xmcd
#
# Track frame offsets: 
#        150
#        7606
#        19857
#        29977
#        40445
#        53594
#        66191
#        79425
#        90933
#        102741
#        114536
#        126336
#        138864
#        151496
#        162265
#        175355
#        186812
#        197125
#        207544
#        217215
#
# Disc length: 3062 seconds
#
# Revision: 2
# Processed by: cddbd v1.5.2PL0 Copyright (c) Steve Scherf et al.
# Submitted via: ExactAudioCopyFreeDBPlugin 1.0
#
DISCID=260bf414
DTITLE=Various Artist - Country and Western - CD3
DYEAR=2005
DGENRE=Country Classics
TTITLE0=Tex Williams - Steel Guitar Rag
TTITLE1=Floyd Tillman - I Love You So Much It Hurts
TTITLE2=Gene O'Quin - Moblin' Baby Of Mine
TTITLE3=Roy Hogsed - Roll 'Em Dice
TTITLE4=Tex Williams - Smoke Smoke Smoke That Cigarette
TTITLE5=Jack Guthrie - Oklahoma Hills
TTITLE6=Jerry Lee Lewis - You Win Again
TTITLE7=Kitty Wells - It Wasn't God Who Made Honky Tonk Angels
TTITLE8=Hank Williams - Settin' The Woods On Fire
TTITLE9=Kay Starr and Tennessee Ernie Ford - I'll Never Be Free
TTITLE10=Ernest Tubb - Fortunes In Memories
TTITLE11=Space Cooley - You Never Miss The Water
TTITLE12=Slim Whitman - Secret Love
TTITLE13=Faron Young - If You Ain't Lovin'
TTITLE14=Hank Williams - Jambalaya
TTITLE15=Jean Shepard - A Dear John Letter
TTITLE16=Hank Thompson - Wake Up Irene
TTITLE17=Bonnie Lou - Seven Lonely Days
TTITLE18=Faron Young - I've Got Five Dollars And It's Saturday Night
TTITLE19=Lefty Frizzel - I Love You A Thousand Ways
EXTD=YEAR: 2005
EXTT0=
EXTT1=
EXTT2=
EXTT3=
EXTT4=
EXTT5=
EXTT6=
EXTT7=
EXTT8=
EXTT9=
EXTT10=
EXTT11=
EXTT12=
EXTT13=
EXTT14=
EXTT15=
EXTT16=
EXTT17=
EXTT18=
EXTT19=
PLAYORDER=
